<svg width="46" height="48" viewBox="0 0 46 48" fill="none" xmlns="http://www.w3.org/2000/svg">
<path d="M35.7485 17.2585C33.0424 17.2585 30.5902 18.3228 28.7686 20.0467L28.0729 18.9082C31.0616 17.1384 33.0715 13.8909 33.0715 10.1652C33.0715 4.55083 28.5205 0 22.9063 0C17.2923 0 12.7413 4.55067 12.7413 10.1652C12.7413 13.91 14.7712 17.1722 17.7851 18.9361L17.1507 19.9736C15.3378 18.2935 12.9182 17.2585 10.2516 17.2585C4.6376 17.2585 0.0866089 21.8092 0.0866089 27.4239C0.0866089 33.038 4.6376 37.5889 10.2516 37.5889C14.8588 37.5889 18.7447 34.5218 19.9923 30.3198H21.8998C21.6844 41.7608 13.8757 48 13.8757 48H31.9988C31.9988 48 24.19 41.7608 23.9747 30.3198H26.0076C27.2552 34.5218 31.1413 37.5889 35.7483 37.5889C41.3623 37.5889 45.9133 33.0382 45.9133 27.4239C45.9135 21.8092 41.3625 17.2585 35.7485 17.2585Z" fill="black"/>
</svg>
