<svg width="42" height="48" viewBox="0 0 42 48" fill="none" xmlns="http://www.w3.org/2000/svg">
<path d="M36.4592 16.6972C34.4222 13.7651 21.2468 0.252612 21.034 0.0114749V0C21.034 0 21.0298 0.00480644 21.0288 0.00573687C21.0279 0.00480644 21.0238 0 21.0238 0V0.0114749C20.8108 0.252767 7.86825 13.7367 5.59845 16.6974C3.32865 19.658 -3.90038 28.7291 5.00487 35.7273C5.00487 35.7273 14.8576 42.0697 20.0172 31.2001C19.5805 42.0795 12.4059 48 12.4059 48H29.623C29.623 48 22.4221 42.0561 22.0102 31.1373C27.1615 42.0958 37.0531 35.7275 37.0531 35.7275C45.958 28.7289 38.4963 19.6293 36.4592 16.6972Z" fill="black"/>
</svg>
