<svg xmlns="http://www.w3.org/2000/svg" width="672" height="673" viewBox="0 0 672 673" fill="none">
<path d="M179.115 151.296C80.1939 234.855 70.0376 385.506 156.446 487.8C242.841 590.078 393.074 605.258 491.996 521.698C590.913 438.143 601.063 287.486 514.668 185.208C428.26 82.9129 278.033 67.7399 179.115 151.296Z" fill="#B38FF1"/>
<path d="M380.143 238.593C358.412 232.761 240.033 221.288 238.028 220.992L237.982 220.937C237.982 220.937 237.981 220.977 237.98 220.986C237.971 220.985 237.932 220.978 237.932 220.978L237.979 221.034C237.935 223.061 230.46 340.608 231.573 364.092C232.685 387.576 234.771 460.643 306.102 458.12C306.102 458.12 379.328 448.587 359.965 375.276C402.104 429.428 391.641 487.107 391.641 487.107L474.527 417.092C474.527 417.092 415.689 417.76 369.304 366.869C438.667 398.678 460.39 327.794 460.39 327.794C474.8 257.888 401.873 244.425 380.143 238.593Z" fill="#3A3A3A"/>
<g clip-path="url(#clip0_34_105)">
<path d="M264.938 118.328C240.672 129.002 229.653 157.325 240.328 181.593C251.002 205.857 279.326 216.875 303.592 206.2C327.857 195.526 338.875 167.202 328.202 142.938C317.526 118.67 289.202 107.654 264.938 118.328Z" fill="#B38FF1"/>
<path d="M306.409 152.495L306.326 152.532C290.043 151.467 271.926 134.026 271.926 134.026C271.926 134.026 271.753 158.771 262.174 171.954L262.099 171.987C262.115 171.989 262.132 171.992 262.147 171.994C262.138 172.006 262.129 172.02 262.12 172.033L262.195 172C278.385 173.848 296.743 190.442 296.743 190.442C296.743 190.442 296.129 165.301 306.346 152.578L306.429 152.541C306.412 152.54 306.395 152.538 306.378 152.537C306.389 152.523 306.398 152.509 306.409 152.495Z" fill="#D61E1E"/>
</g>
<g clip-path="url(#clip1_34_105)">
<path d="M411.016 167.307C390.021 183.493 386.121 213.632 402.307 234.629C418.492 255.622 448.633 259.521 469.628 243.335C490.623 227.15 494.522 197.009 478.337 176.016C462.15 155.019 432.01 151.122 411.016 167.307Z" fill="#B38FF1"/>
<path d="M447.651 189.237C445.024 191.262 443.441 194.13 442.962 197.167L441.435 196.582C443.012 192.628 442.533 187.971 439.744 184.355C435.543 178.905 427.72 177.893 422.27 182.095C416.821 186.296 415.808 194.119 420.01 199.569C422.812 203.204 427.224 204.851 431.47 204.308L431.63 205.79C428.613 205.516 425.49 206.322 422.901 208.317C417.452 212.519 416.44 220.342 420.641 225.792C424.843 231.241 432.666 232.253 438.115 228.052C442.588 224.604 444.064 218.719 442.131 213.707L443.983 212.279C452.335 223.546 449.424 235.446 449.424 235.446L467.016 221.884C467.016 221.884 454.767 221.671 445.997 210.726L447.97 209.205C452.326 212.35 458.393 212.42 462.865 208.972C468.315 204.771 469.327 196.948 465.125 191.498C460.924 186.048 453.101 185.036 447.651 189.237Z" fill="#3A3A3A"/>
</g>
<path d="M509.775 272.645C483.39 275.211 464.08 298.678 466.645 325.066C469.21 351.449 492.68 370.759 519.065 368.193C545.45 365.628 564.76 342.159 562.195 315.776C559.629 289.388 536.16 270.08 509.775 272.645Z" fill="#B38FF1"/>
<path d="M534.413 295.27C534.413 295.27 519.543 284.435 513.096 306.804C502.461 286.096 489.957 299.592 489.957 299.592C473.543 316.541 515.108 345.51 516.95 346.779L516.955 346.834C516.955 346.834 516.966 346.823 516.985 346.803C517.008 346.819 517.02 346.828 517.02 346.828L517.015 346.773C518.578 345.172 553.784 308.739 534.413 295.27Z" fill="#D61E1E"/>
<defs>
<clipPath id="clip0_34_105">
<rect width="96" height="96" fill="white" transform="translate(221 137.655) rotate(-23.7445)"/>
</clipPath>
<clipPath id="clip1_34_105">
<rect width="96" height="96" fill="white" transform="translate(373 196.613) rotate(-37.6296)"/>
</clipPath>
</defs>
</svg>