<svg xmlns="http://www.w3.org/2000/svg" width="46" height="48" viewBox="0 0 46 48" fill="none">
<path d="M35.7483 17.2585C33.0422 17.2585 30.59 18.3228 28.7684 20.0467L28.0727 18.9082C31.0614 17.1384 33.0713 13.8909 33.0713 10.1652C33.0713 4.55083 28.5203 0 22.9061 0C17.2921 0 12.7411 4.55067 12.7411 10.1652C12.7411 13.91 14.771 17.1722 17.7849 18.9361L17.1505 19.9736C15.3376 18.2935 12.918 17.2585 10.2514 17.2585C4.63742 17.2585 0.0864258 21.8092 0.0864258 27.4239C0.0864258 33.038 4.63742 37.5889 10.2514 37.5889C14.8586 37.5889 18.7446 34.5218 19.9921 30.3198H21.8996C21.6842 41.7608 13.8755 48 13.8755 48H31.9986C31.9986 48 24.1898 41.7608 23.9745 30.3198H26.0075C27.255 34.5218 31.1411 37.5889 35.7481 37.5889C41.3622 37.5889 45.9132 33.0382 45.9132 27.4239C45.9133 21.8092 41.3623 17.2585 35.7483 17.2585Z" fill="#350F68"/>
</svg>