<svg width="70" height="72" viewBox="0 0 70 72" fill="none" xmlns="http://www.w3.org/2000/svg">
<path d="M54.1227 25.8878C50.0637 25.8878 46.3853 27.4842 43.653 30.07L42.6094 28.3623C47.0924 25.7076 50.1072 20.8363 50.1072 15.2478C50.1072 6.82625 43.2807 0 34.8595 0C26.4384 0 19.6119 6.82601 19.6119 15.2478C19.6119 20.865 22.6568 25.7583 27.1777 28.4042L26.226 29.9604C23.5067 27.4402 19.8774 25.8878 15.8775 25.8878C7.45643 25.8878 0.629944 32.7138 0.629944 41.1358C0.629944 49.5571 7.45643 56.3833 15.8775 56.3833C22.7883 56.3833 28.6171 51.7827 30.4885 45.4797H33.3497C33.0267 62.6413 21.3135 72 21.3135 72H48.4982C48.4982 72 36.785 62.6413 36.4621 45.4797H39.5115C41.3829 51.7827 47.212 56.3833 54.1225 56.3833C62.5436 56.3833 69.37 49.5573 69.37 41.1358C69.3703 32.7138 62.5438 25.8878 54.1227 25.8878Z" fill="#350F68"/>
</svg>
